<svg width="104" height="53" viewBox="0 0 104 53" fill="none" xmlns="http://www.w3.org/2000/svg">
<g clip-path="url(#clip0_145_399)">
<path d="M52.8443 0.0297847V52.3265C35.2495 52.3265 17.6533 52.3265 0.0585209 52.3265C-0.0288515 52.2032 0.00838916 52.0615 0.00838916 51.9296C0.00695683 43.8706 0.00695683 35.8101 0.00695683 27.751C0.00695683 18.6429 0.00695683 9.53623 0.00838916 0.430966C0.00838916 0.297712 -0.0288515 0.158787 0.0513592 0.0326199C0.140164 -0.0184138 0.23613 0.00568545 0.329232 0.00568545C17.7407 0.00568545 35.1536 0.00568545 52.565 0.00568545C52.6581 0.00568545 52.7541 -0.0169962 52.8443 0.0297847Z" fill="#0C0C0C"/>
<path d="M36.0676 22.1967C36.0519 22.303 36.0576 22.3852 36.0576 22.4674C36.0576 24.221 36.0548 25.9746 36.0576 27.7282C36.0576 28.1407 36.0146 28.5461 35.87 28.9317C35.3801 30.2345 34.4491 31.034 33.0597 31.275C31.6016 31.5273 30.1421 30.8001 29.4374 29.5951C28.5808 28.1308 27.72 26.6692 26.8606 25.2063C26.3163 24.2806 25.772 23.3534 25.2277 22.4278C25.1862 22.3569 25.1404 22.2874 25.0974 22.2179C25.0329 22.2506 25.0573 22.2973 25.053 22.3356C25.0487 22.3781 25.053 22.4207 25.053 22.4632C25.053 24.1232 25.053 25.7832 25.053 27.4418C25.053 27.877 25.0115 28.308 24.904 28.7318C24.8496 28.9473 24.778 29.1557 24.6849 29.357C24.2538 30.2855 23.5175 30.8483 22.5321 31.1091C22.1482 31.2112 21.7558 31.2566 21.359 31.258C19.3036 31.2608 17.2482 31.2778 15.1928 31.2552C10.6967 31.2041 7.03136 28.1308 6.03446 24.0481C5.80529 23.1082 5.71935 22.1542 5.79526 21.1859C5.99149 18.6782 7.0242 16.5716 8.8891 14.8705C10.1553 13.7166 11.642 12.9723 13.3293 12.6222C13.9624 12.4904 14.6013 12.4209 15.2487 12.4209C16.2026 12.4223 17.158 12.4209 18.1119 12.4209C18.1721 12.4209 18.2322 12.4209 18.2924 12.4294C18.311 12.4322 18.3353 12.4578 18.3411 12.4776C18.3497 12.5088 18.3468 12.5456 18.3468 12.5797C18.3468 13.2431 18.3468 13.908 18.3468 14.5714C18.3468 14.6054 18.3468 14.6394 18.3425 14.6735C18.3368 14.7103 18.311 14.733 18.2738 14.7358C18.1964 14.7401 18.1191 14.7415 18.0417 14.7415C17.1565 14.7415 16.2699 14.7415 15.3847 14.7415C14.3134 14.7415 13.2792 14.9286 12.3109 15.3879C10.1209 16.427 8.76879 18.1282 8.24742 20.4757C7.53411 24.2437 9.84877 27.6445 13.262 28.6468C13.8736 28.8268 14.501 28.9289 15.1412 28.9289C17.1709 28.9303 19.2005 28.9246 21.2301 28.9331C21.8503 28.936 22.4977 28.4767 22.6567 27.8161C22.6739 27.7423 22.6853 27.6658 22.6896 27.5892C22.6954 27.4787 22.6939 27.3681 22.6939 27.2575C22.6939 23.5547 22.6939 19.852 22.6939 16.1506C22.6939 16.057 22.6896 15.9621 22.6997 15.8699C22.7269 15.6389 22.8973 15.4461 23.1093 15.3936C23.3442 15.3355 23.5748 15.4234 23.7166 15.6289C23.7553 15.6856 23.7868 15.7452 23.8212 15.8047C26.2433 19.9384 28.6668 24.0722 31.0889 28.2059C31.1318 28.2796 31.1734 28.3533 31.2178 28.427C31.54 28.9601 32.1903 29.1685 32.7088 29.0281C33.2674 28.8764 33.6714 28.3959 33.7086 27.8033C33.7143 27.7097 33.7115 27.6162 33.7115 27.5226C33.7115 23.7348 33.7115 19.9469 33.7115 16.1591C33.7115 16.0656 33.7086 15.972 33.7172 15.8784C33.7372 15.6445 33.8962 15.4546 34.1139 15.395C34.3345 15.3355 34.5709 15.4163 34.7084 15.602C34.7585 15.67 34.8 15.7452 34.843 15.8189C37.2722 19.9682 39.7029 24.1175 42.1321 28.2669C42.1708 28.3335 42.2081 28.4001 42.2496 28.4639C42.5733 28.953 43.162 29.1727 43.7364 29.021C44.2921 28.8736 44.6946 28.3647 44.7161 27.782C44.7189 27.6885 44.7175 27.5949 44.7175 27.5014C44.7175 22.5823 44.7175 17.6618 44.7175 12.7427C44.7175 12.6661 44.7175 12.5896 44.7175 12.513C44.7175 12.4478 44.7533 12.4237 44.8135 12.4237C44.8564 12.4237 44.8994 12.4237 44.9424 12.4237C45.5783 12.4237 46.2157 12.4237 46.8517 12.4237C46.8947 12.4237 46.9376 12.4237 46.9806 12.4252C47.0293 12.428 47.0622 12.4493 47.0637 12.5017C47.0651 12.5612 47.0665 12.6208 47.0665 12.6803C47.0665 17.6845 47.0665 22.69 47.0665 27.6941C47.0665 28.4837 46.8717 29.211 46.4005 29.8517C45.8233 30.6371 45.0498 31.1177 44.0773 31.2793C42.5833 31.5288 41.1224 30.7718 40.4205 29.5668C39.0354 27.1866 37.6346 24.815 36.2395 22.4419C36.1951 22.3654 36.165 22.2747 36.0619 22.2009L36.0676 22.1967Z" fill="#FAFAFA"/>
<path d="M30.5804 21.4242C30.5804 21.3406 30.5804 21.2569 30.5804 21.1747C30.5804 19.4126 30.5818 17.6505 30.5804 15.8899C30.5804 15.381 30.672 14.8905 30.8883 14.4283C31.4183 13.2985 32.3092 12.6039 33.5439 12.387C35.0435 12.1219 36.4916 12.8576 37.1963 14.0569C37.9655 15.3654 38.7346 16.6738 39.5024 17.9823C40.1369 19.0625 40.7714 20.1441 41.4059 21.2243C41.4475 21.2952 41.4933 21.3647 41.5334 21.4327C41.595 21.4214 41.5821 21.3803 41.5836 21.3505C41.5864 21.2739 41.5836 21.1974 41.5836 21.1208C41.5836 18.3211 41.5836 15.5199 41.5836 12.7201C41.5836 12.3827 41.5363 12.421 41.8829 12.421C42.4759 12.4196 43.0689 12.421 43.6633 12.421C43.7321 12.421 43.8008 12.421 43.8696 12.4253C43.9068 12.4267 43.9326 12.4508 43.9355 12.4891C43.9383 12.5486 43.9398 12.6081 43.9398 12.6677C43.9398 17.6378 43.9398 22.6093 43.9398 27.5794C43.9398 27.639 43.9426 27.6985 43.9369 27.758C43.9154 28.0203 43.7564 28.2088 43.5086 28.2698C43.2737 28.3279 43.0531 28.2386 42.9099 28.0246C42.8626 27.9537 42.8211 27.8785 42.7781 27.8048C40.3661 23.6853 37.954 19.5657 35.5405 15.4448C35.489 15.3569 35.4388 15.2661 35.3816 15.1825C35.1094 14.7785 34.6038 14.4964 33.9607 14.6296C33.4364 14.7388 33.0268 15.1924 32.9437 15.7283C32.9222 15.8644 32.9222 15.999 32.9222 16.1351C32.9222 19.923 32.9222 23.7094 32.9222 27.4972C32.9222 27.5908 32.9251 27.6843 32.9179 27.7779C32.8993 28.0302 32.7461 28.2074 32.5026 28.2684C32.2763 28.3251 32.0542 28.2443 31.9153 28.0501C31.8666 27.9806 31.8251 27.9055 31.7821 27.8318C29.6608 24.2126 27.541 20.5935 25.4211 16.9743C25.0931 16.4158 24.7637 15.8573 24.44 15.2973C24.2509 14.9713 23.9845 14.743 23.6178 14.6466C22.7312 14.4127 21.9778 15.0422 21.9176 15.8204C21.9104 15.9225 21.9133 16.0246 21.9133 16.1266C21.9133 19.8294 21.9133 23.5308 21.9133 27.2335C21.9133 27.3101 21.909 27.3866 21.9133 27.4632C21.9362 27.7736 21.6254 28.1677 21.2043 28.1564C20.809 28.1451 20.4137 28.1536 20.0183 28.1536C18.4442 28.1536 16.8715 28.1536 15.2974 28.1536C12.6533 28.1536 10.3744 26.5616 9.40331 24.2778C9.00941 23.3521 8.84613 22.3839 8.92347 21.3845C9.15408 18.3792 11.3828 16.2202 13.8808 15.6801C14.2933 15.5908 14.7087 15.5312 15.1312 15.5298C16.1367 15.5298 17.1436 15.5298 18.1491 15.5284C18.1921 15.5284 18.2351 15.5284 18.278 15.5326C18.3153 15.5355 18.3425 15.5567 18.3454 15.595C18.3497 15.6376 18.3497 15.6801 18.3497 15.7226C18.3497 16.369 18.3497 17.0169 18.3497 17.6633C18.3497 17.6973 18.3497 17.7313 18.3468 17.7654C18.3454 17.8178 18.3124 17.8391 18.2637 17.8405C18.195 17.8433 18.1262 17.8419 18.0575 17.8419C17.1379 17.8419 16.2169 17.8363 15.2974 17.8448C14.4494 17.8518 13.6702 18.09 12.9813 18.5833C12.0517 19.2482 11.4931 20.1441 11.3226 21.2711C11.019 23.2784 12.3238 25.2702 14.4637 25.7422C14.7674 25.8088 15.0753 25.8287 15.3862 25.8287C16.5206 25.8287 17.6564 25.8287 18.7908 25.8287C18.8768 25.8287 18.9627 25.8259 19.0472 25.8131C19.295 25.7762 19.4841 25.599 19.5428 25.3566C19.5714 25.239 19.5686 25.1199 19.5686 25.0008C19.5686 22.856 19.5686 20.7112 19.5686 18.5663C19.5686 17.6817 19.57 16.7957 19.5686 15.9111C19.5671 15.4207 19.6445 14.9443 19.8465 14.4935C20.3707 13.3269 21.2702 12.6081 22.5378 12.387C24.0561 12.1219 25.4984 12.8817 26.2003 14.0853C27.296 15.9636 28.4004 17.8348 29.5018 19.7103C29.8083 20.232 30.1149 20.7537 30.4214 21.2754C30.4543 21.3321 30.493 21.3873 30.5302 21.4426C30.546 21.437 30.5617 21.4327 30.5775 21.427L30.5804 21.4242Z" fill="#FAFAFA"/>
<path d="M16.8085 34.4393C17.1265 34.6888 17.2855 35.0503 17.2855 35.5223C17.2855 35.8101 17.2168 36.0596 17.0792 36.2722C16.9417 36.4835 16.7498 36.6493 16.5035 36.7698V36.7783C16.8716 36.8917 17.1365 37.0689 17.3013 37.3085C17.466 37.5481 17.5476 37.8415 17.5476 38.1888C17.5476 38.5362 17.4574 38.8523 17.2755 39.106C17.095 39.3584 16.8486 39.5497 16.5393 39.6802C16.2299 39.8106 15.879 39.8758 15.4894 39.8758H12.7078V34.0679H15.3991C16.0193 34.0679 16.4877 34.1926 16.8071 34.4421L16.8085 34.4393ZM13.9768 35.0588V36.3701H15.253C15.5051 36.3701 15.697 36.3148 15.8288 36.2028C15.9606 36.0922 16.0265 35.9278 16.0265 35.7095C16.0265 35.4911 15.9606 35.3366 15.8288 35.2246C15.697 35.1141 15.5051 35.0574 15.253 35.0574H13.9768V35.0588ZM13.9768 37.3638V38.8792H15.4335C15.7128 38.8792 15.9248 38.8126 16.0666 38.6793C16.2098 38.5461 16.28 38.3604 16.28 38.1208C16.28 37.8812 16.2084 37.6955 16.0666 37.5623C15.9234 37.429 15.7128 37.3624 15.4335 37.3624H13.9768V37.3638Z" fill="#FAFAFA"/>
<path d="M23.373 39.5144C23.3973 39.6448 23.4346 39.7639 23.4847 39.8731H22.1841C22.1297 39.7157 22.0796 39.4662 22.0366 39.1231L21.9378 38.3817C21.9048 38.1266 21.8232 37.9437 21.6914 37.8317C21.5596 37.7211 21.3505 37.6644 21.0655 37.6644H19.7893V39.8716H18.4973V34.0637H21.1887C21.8905 34.0637 22.4105 34.2069 22.7485 34.4918C23.0865 34.7768 23.2541 35.1808 23.2541 35.7011C23.2541 36.0427 23.1796 36.3361 23.0321 36.5814C22.8846 36.8266 22.6611 37.0109 22.366 37.1357C22.6239 37.2221 22.8158 37.3554 22.9418 37.5354C23.0679 37.714 23.151 37.948 23.1882 38.2357L23.287 38.953C23.32 39.1969 23.3486 39.3854 23.373 39.5144ZM21.9607 35.8655C21.9607 35.3282 21.6427 35.0589 21.0053 35.0589H19.7878V36.6721H21.0053C21.6413 36.6721 21.9607 36.4028 21.9607 35.8655Z" fill="#FAFAFA"/>
<path d="M28.2988 38.5689H26.1087L25.6976 39.8716H24.3154L26.2577 34.0637H28.134L30.1178 39.8716H28.727L28.2988 38.5689ZM27.1629 34.9852L26.3895 37.5751H28.0352L27.2202 34.9852H27.1629Z" fill="#FAFAFA"/>
<path d="M34.0566 34.1048C34.3946 34.2409 34.6596 34.4379 34.8544 34.6959C35.0492 34.9539 35.1466 35.2601 35.1466 35.6131H33.8546C33.8274 35.3905 33.73 35.2204 33.5624 35.1042C33.3949 34.9879 33.1571 34.9284 32.8506 34.9284C32.6529 34.9284 32.4796 34.9567 32.3321 35.0135C32.1845 35.0702 32.07 35.1524 31.9912 35.2573C31.911 35.3636 31.8723 35.4813 31.8723 35.6117C31.8723 35.7747 31.9196 35.9051 32.017 36.0029C32.1129 36.1008 32.2433 36.166 32.408 36.1986L33.9062 36.5161C34.3889 36.6196 34.7513 36.8081 34.9933 37.0817C35.2354 37.3567 35.3557 37.7097 35.3557 38.1449C35.3557 38.5192 35.2612 38.8452 35.0721 39.1231C34.8831 39.3995 34.6138 39.615 34.2657 39.7667C33.9177 39.9184 33.5094 39.9949 33.0439 39.9949C32.5441 39.9949 32.1086 39.9226 31.7348 39.7794C31.3609 39.6363 31.0716 39.425 30.8668 39.1486C30.6605 38.8722 30.5588 38.5433 30.5588 38.1634V38.0982H31.8508V38.1464C31.8508 38.3902 31.9482 38.5886 32.143 38.7417C32.3378 38.8934 32.6271 38.97 33.011 38.97C33.3734 38.97 33.6427 38.9048 33.8174 38.7743C33.9936 38.6439 34.0809 38.4724 34.0809 38.2612C34.0809 38.0712 34.0208 37.9224 33.9005 37.8132C33.7802 37.7041 33.571 37.6176 33.2745 37.5524L32.0069 37.283C31.53 37.1852 31.1762 37.0009 30.9456 36.7288C30.715 36.4566 30.6004 36.1121 30.6004 35.6939C30.6004 35.314 30.7021 34.9879 30.9055 34.7158C31.1089 34.4436 31.3853 34.2409 31.7362 34.1048C32.0871 33.9687 32.4825 33.9006 32.9222 33.9006C33.3619 33.9006 33.7243 33.9687 34.0623 34.1048H34.0566Z" fill="#FAFAFA"/>
<path d="M37.8953 39.8731H36.5862V34.0652H37.8953V39.8731Z" fill="#FAFAFA"/>
<path d="M40.5882 38.8127H43.354V39.8716H39.2791V34.0637H40.5882V38.8127Z" fill="#FAFAFA"/>
<path d="M72.3944 17.0949V26.0059C72.3944 28.878 70.0726 31.1759 67.1707 31.1759H61.9828V40.8624H60.1694V12.1404H67.1707C70.0726 12.1404 72.3944 14.2228 72.3944 17.0949ZM70.5811 26.0059V17.0949C70.5811 15.1925 69.0943 13.9351 67.1707 13.9351H61.9828V29.3813H67.1707C69.0929 29.3813 70.5811 27.9098 70.5811 26.0059Z" fill="#FF007A"/>
<path d="M103.946 17.0949V26.0059C103.946 28.878 101.624 31.1759 98.7222 31.1759H93.5343V40.8624H91.7209V12.1404H98.7222C101.624 12.1404 103.946 14.2228 103.946 17.0949ZM102.133 26.0059V17.0949C102.133 15.1925 100.646 13.9351 98.7222 13.9351H93.5343V29.3813H98.7222C100.644 29.3813 102.133 27.9098 102.133 26.0059Z" fill="#FF007A"/>
<path d="M80.629 11.9248H82.5512C85.4531 11.9248 87.7749 14.2227 87.7749 17.0948V36.051C87.7749 38.923 85.4531 41.221 82.5512 41.221H80.629C77.7271 41.221 75.4053 38.923 75.4053 36.051V17.0948C75.4053 14.2227 77.7271 11.9248 80.629 11.9248ZM80.629 39.4263H82.5512C84.4734 39.4263 85.9616 37.9548 85.9616 36.051V17.0948C85.9616 15.1924 84.4748 13.7195 82.5512 13.7195H80.629C78.7068 13.7195 77.2186 15.191 77.2186 17.0948V36.051C77.2186 37.9534 78.7054 39.4263 80.629 39.4263Z" fill="#FF007A"/>
</g>
<defs>
<clipPath id="clip0_145_399">
<rect width="103.946" height="52.3265" fill="white"/>
</clipPath>
</defs>
</svg>
